HIERARCHY
ROOT SpineBase
{
  OFFSET 0.000000 0.000000 0.000000
  CHANNELS 6 Xposition Yposition Zposition Zrotation Xrotation Yrotation
  JOINT SpineMid
  {
    OFFSET -0.000000 31.374366 0.000000
    CHANNELS 3 Zrotation Xrotation Yrotation
    JOINT SpineShoulder
    {
      OFFSET 0.045543 23.273916 -0.114988
      CHANNELS 3 Zrotation Xrotation Yrotation
      JOINT Neck
      {
        OFFSET -0.050793 7.640059 -0.168895
        CHANNELS 3 Zrotation Xrotation Yrotation
        JOINT Head
        {
          OFFSET -6.085128 12.386037 4.417104
          CHANNELS 3 Zrotation Xrotation Yrotation
          End Site
          {
            OFFSET 0 0 0
          }
        }
      }
      JOINT ShoulderLeft
      {
        OFFSET -14.918572 -6.777891 10.503346
        CHANNELS 3 Zrotation Xrotation Yrotation
        JOINT ElbowLeft
        {
          OFFSET -1.444562 -24.304995 -0.195052
          CHANNELS 3 Zrotation Xrotation Yrotation
          JOINT WristLeft
          {
            OFFSET -0.272435 -23.137782 -4.478830
            CHANNELS 3 Zrotation Xrotation Yrotation
            JOINT HandLeft
            {
              OFFSET 1.564990 -8.421666 0.556871
              CHANNELS 3 Zrotation Xrotation Yrotation
              JOINT HandTipLeft
              {
                OFFSET 0.017359 -8.118531 -0.681270
                CHANNELS 3 Zrotation Xrotation Yrotation
                End Site
                {
                  OFFSET 0 0 0
                }
              }
              JOINT ThumbLeft
              {
                OFFSET -1.618505 -0.566448 -1.798929
                CHANNELS 3 Zrotation Xrotation Yrotation
                End Site
                {
                  OFFSET 0 0 0
                }
              }
            }
          }
        }
      }
      JOINT ShoulderRight
      {
        OFFSET 13.170621 -2.861306 -9.103835
        CHANNELS 3 Zrotation Xrotation Yrotation
        JOINT ElbowRight
        {
          OFFSET 7.632288 -23.023236 -5.008920
          CHANNELS 3 Zrotation Xrotation Yrotation
          JOINT WristRight
          {
            OFFSET 2.802445 -23.384775 -6.431431
            CHANNELS 3 Zrotation Xrotation Yrotation
            JOINT HandRight
            {
              OFFSET 0.276019 -6.951321 0.457645
              CHANNELS 3 Zrotation Xrotation Yrotation
              JOINT HandTipRight
              {
                OFFSET -0.895361 -7.361171 -0.424460
                CHANNELS 3 Zrotation Xrotation Yrotation
                End Site
                {
                  OFFSET 0 0 0
                }
              }
              JOINT ThumbRight
              {
                OFFSET 2.382570 -0.251270 -1.703427
                CHANNELS 3 Zrotation Xrotation Yrotation
                End Site
                {
                  OFFSET 0 0 0
                }
              }
            }
          }
        }
      }
    }
  }
  JOINT HipLeft
  {
    OFFSET -6.283816 -0.018950 -0.121410
    CHANNELS 3 Zrotation Xrotation Yrotation
    JOINT KneeLeft
    {
      OFFSET 2.378468 -34.017317 0.041556
      CHANNELS 3 Zrotation Xrotation Yrotation
      JOINT AnkleLeft
      {
        OFFSET 12.599558 -45.164397 5.206762
        CHANNELS 3 Zrotation Xrotation Yrotation
        JOINT FootLeft
        {
          OFFSET 0.680595 1.417894 -14.045114
          CHANNELS 3 Zrotation Xrotation Yrotation
          End Site
          {
            OFFSET 0 0 0
          }
        }
      }
    }
  }
  JOINT HipRight
  {
    OFFSET 6.800517 1.867548 -6.773284
    CHANNELS 3 Zrotation Xrotation Yrotation
    JOINT KneeRight
    {
      OFFSET 4.384497 -33.863525 -14.579142
      CHANNELS 3 Zrotation Xrotation Yrotation
      JOINT AnkleRight
      {
        OFFSET 2.976107 -37.740146 -5.309774
        CHANNELS 3 Zrotation Xrotation Yrotation
        JOINT FootRight
        {
          OFFSET -4.695107 -2.556655 -10.451235
          CHANNELS 3 Zrotation Xrotation Yrotation
          End Site
          {
            OFFSET 0 0 0
          }
        }
      }
    }
  }
}
MOTION
Frames: 13
Frame Time: 0.033333
-25.506654 81.617502 336.252644 -4.777684 -0.100824 41.261025 -1.383137 -1.383359 -41.383475 -0.761722 -1.722557 -0.201776 -6.671321 4.590027 5.958292 0.000000 0.000000 0.000000 3.225595 1.705197 0.222968 -2.167787 -3.545186 0.717885 -20.689871 -21.857525 -12.198269 18.888490 29.282840 3.065396 0.000000 0.000000 0.000000 0.000000 0.000000 0.000000 -30.713420 34.923681 32.169280 -34.019038 37.409402 18.748308 -13.112479 42.760481 -24.529397 12.237145 -1.585402 9.015630 0.000000 0.000000 0.000000 0.000000 0.000000 0.000000 -6.270610 -4.657349 -42.391419 5.030683 20.402069 3.887344 -6.968836 -38.991086 -15.964851 0.000000 0.000000 0.000000 -0.519513 -3.702209 -40.648490 6.621965 -4.980899 -1.992055 -5.829484 5.746880 13.342094 0.000000 0.000000 0.000000
-25.234534 81.497616 335.592027 -4.392440 0.246804 40.696203 -1.481412 -1.358565 -40.800816 -0.789414 -1.790752 -0.196599 -8.098011 3.845381 6.172143 0.000000 0.000000 0.000000 2.976131 1.468744 0.225362 -2.164642 -3.546332 0.717754 -18.807669 -21.251249 -11.476393 17.445093 28.372342 3.206104 0.000000 0.000000 0.000000 0.000000 0.000000 0.000000 -33.844771 35.309944 34.476154 -33.046413 37.902370 18.830524 -13.615670 44.788114 -25.553996 14.027477 -2.058503 11.128612 0.000000 0.000000 0.000000 0.000000 0.000000 0.000000 -6.842190 -3.807566 -41.712437 5.753775 19.759960 3.812875 -10.706896 -39.346052 -25.803494 0.000000 0.000000 0.000000 -1.846404 -3.623355 -39.882644 7.517905 -4.926696 -2.349345 -6.053665 6.123485 13.347056 0.000000 0.000000 0.000000
-24.879992 81.477108 334.949480 -3.912322 0.550970 40.052318 -1.644732 -1.332455 -40.143870 -0.838765 -1.840210 -0.189606 -9.370401 3.394247 6.445662 0.000000 0.000000 0.000000 2.707414 1.295181 0.227127 -2.161517 -3.546984 0.717639 -16.941296 -20.740689 -10.825534 15.270748 27.953761 3.738427 0.000000 0.000000 0.000000 0.000000 0.000000 0.000000 -36.988465 35.850627 36.938326 -34.930943 39.264538 20.640050 -13.296016 46.092874 -29.440715 16.053308 -4.150145 12.076304 0.000000 0.000000 0.000000 0.000000 0.000000 0.000000 -7.601353 -3.032878 -40.980721 6.465493 19.322918 3.755855 -13.082211 -39.614925 -31.699998 0.000000 0.000000 0.000000 -3.243619 -3.523188 -39.047082 8.230543 -4.741774 -2.683249 -6.084834 6.402513 13.333791 0.000000 0.000000 0.000000
-24.544900 81.582069 334.422356 -3.479362 0.787597 39.469891 -1.748031 -1.317183 -39.551317 -0.884931 -1.876386 -0.181643 -10.332750 2.941805 6.548736 0.000000 0.000000 0.000000 2.429628 1.143447 0.228232 -2.159484 -3.547077 0.717620 -15.963259 -20.475520 -10.495389 14.200318 25.303027 3.907576 0.000000 0.000000 0.000000 0.000000 0.000000 0.000000 -40.263834 36.447316 39.605314 -38.186567 41.025779 23.436598 -12.734724 46.851654 -38.335328 16.923282 -3.261860 16.789722 0.000000 0.000000 0.000000 0.000000 0.000000 0.000000 -7.709314 -1.960740 -40.213440 6.899956 18.284118 3.708557 -14.409672 -40.613504 -33.958810 0.000000 0.000000 0.000000 -4.431553 -3.537010 -38.345780 8.606249 -4.361560 -2.907517 -5.934911 6.486856 13.329447 0.000000 0.000000 0.000000
-24.288843 81.735507 333.985611 -3.160081 0.964756 38.622488 -1.779343 -1.339413 -38.696861 -0.909163 -1.900391 -0.174008 -11.033987 2.685593 6.648333 0.000000 0.000000 0.000000 2.175848 1.018525 0.228688 -2.158370 -3.547122 0.717615 -14.959849 -19.109732 -9.753767 11.959240 23.865504 4.669173 0.000000 0.000000 0.000000 0.000000 0.000000 0.000000 -42.889258 36.945835 41.795039 -42.345095 42.934060 27.042382 -11.743064 46.102573 -55.543546 11.918818 -3.694781 16.310616 0.000000 0.000000 0.000000 0.000000 0.000000 0.000000 -7.729126 -1.273599 -39.240494 7.136354 17.507363 3.682209 -14.222868 -42.769469 -31.297420 0.000000 0.000000 0.000000 -5.267692 -3.650823 -37.436473 8.703333 -3.974324 -3.028988 -6.962339 7.837285 15.122446 0.000000 0.000000 0.000000
-24.122106 81.866960 333.660266 -2.955111 1.082892 37.779227 -1.739631 -1.369695 -37.847730 -0.906933 -1.911543 -0.166816 -11.574863 2.456113 6.696002 0.000000 0.000000 0.000000 1.951006 0.901951 0.228520 -2.158362 -3.547135 0.717590 -15.542582 -18.359406 -9.594057 13.507765 22.938567 4.052995 0.000000 0.000000 0.000000 0.000000 0.000000 0.000000 -44.602974 37.172880 43.137021 -47.124366 44.983566 31.768383 -9.098307 42.115463 -72.943353 7.172615 -8.052035 7.799470 0.000000 0.000000 0.000000 0.000000 0.000000 0.000000 -7.540732 -1.023942 -38.326874 7.025041 16.995300 3.677394 -14.528679 -43.062743 -31.730964 0.000000 0.000000 0.000000 -5.785036 -3.640441 -36.498758 8.870442 -3.868434 -3.153051 -6.531772 7.485388 14.862710 0.000000 0.000000 0.000000
-24.078721 81.945540 333.439401 -2.899157 1.150231 36.752842 -1.617302 -1.404162 -36.815814 -0.876056 -1.893113 -0.160370 -11.831506 2.219831 6.640372 0.000000 0.000000 0.000000 1.786351 0.759897 0.227347 -2.159582 -3.547102 0.717509 -15.636315 -16.950524 -9.077995 13.825828 23.311048 3.929619 0.000000 0.000000 0.000000 0.000000 0.000000 0.000000 -45.364875 37.212950 43.643269 -52.900492 45.774021 35.934883 -7.986727 38.988725 -89.891046 1.410484 -15.905079 -10.700280 0.000000 0.000000 0.000000 0.000000 0.000000 0.000000 -6.342855 -0.798349 -37.167665 6.248199 15.921470 3.678395 -14.778460 -43.722970 -31.666457 0.000000 0.000000 0.000000 -5.931279 -3.724517 -35.433350 8.922764 -3.852421 -3.202966 -3.526180 4.092043 10.980253 0.000000 0.000000 0.000000
-24.173522 81.993623 333.376025 -3.005181 1.138544 36.092423 -1.438701 -1.447768 -36.151387 -0.831459 -1.862393 -0.156268 -11.853158 2.062785 6.545674 0.000000 0.000000 0.000000 1.701811 0.665306 0.226345 -2.159415 -3.547241 0.717538 -15.517508 -16.076533 -8.724737 18.218986 23.559551 1.795098 0.000000 0.000000 0.000000 0.000000 0.000000 0.000000 -44.832099 37.160578 43.113410 -56.855007 44.938025 36.901866 -8.679737 35.440431 -94.789893 1.336430 -17.097210 -10.145349 0.000000 0.000000 0.000000 0.000000 0.000000 0.000000 -8.211079 -2.031199 -36.820793 7.165043 18.000371 3.690794 -14.955903 -43.886183 -31.909516 0.000000 0.000000 0.000000 -5.629559 -3.837110 -34.812164 8.746656 -3.929848 -3.134560 -1.142561 1.066182 7.528766 0.000000 0.000000 0.000000
-24.280849 82.002094 333.334752 -3.127604 1.125589 36.226561 -1.255738 -1.443061 -36.279974 -0.777957 -1.806238 -0.151177 -11.692460 1.892916 6.383615 0.000000 0.000000 0.000000 1.622581 0.510465 0.224334 -2.159699 -3.547214 0.717447 -15.998874 -14.870971 -8.353104 22.934824 23.695519 -0.217032 0.000000 0.000000 0.000000 0.000000 0.000000 0.000000 -43.132357 36.327258 41.125967 -58.082946 43.323129 36.035447 -10.309267 29.645619 -88.772121 0.270173 -13.810474 -1.143464 0.000000 0.000000 0.000000 0.000000 0.000000 0.000000 -9.711284 -3.163042 -37.269031 7.786165 19.848937 3.685386 -15.188425 -43.665318 -32.653884 0.000000 0.000000 0.000000 -5.423044 -3.894926 -34.977922 8.693168 -4.021789 -3.098895 0.400802 -1.178194 5.137439 0.000000 0.000000 0.000000
-24.549619 81.960097 333.485363 -3.451399 0.932398 37.192885 -1.059715 -1.459757 -37.247472 -0.679119 -1.693579 -0.147708 -11.067259 2.439509 6.468354 0.000000 0.000000 0.000000 1.650939 0.488010 0.223974 -2.160253 -3.546949 0.717284 -16.502650 -13.637825 -7.963752 29.519931 24.219363 -3.030616 0.000000 0.000000 0.000000 0.000000 0.000000 0.000000 -40.355841 34.936231 38.073016 -56.389971 40.894979 33.095255 -7.130440 22.813152 -65.441364 -7.314745 -14.387266 -14.057069 0.000000 0.000000 0.000000 0.000000 0.000000 0.000000 -10.567903 -4.264515 -38.541941 7.946779 21.555226 3.694970 -15.211608 -43.513093 -32.857309 0.000000 0.000000 0.000000 -4.769192 -3.910145 -36.042569 8.499477 -4.242480 -2.973455 1.075095 -2.291030 3.859979 0.000000 0.000000 0.000000
-24.735197 82.049247 333.527117 -3.639864 0.975794 38.762263 -1.030285 -1.485692 -38.816575 -0.616913 -1.661635 -0.147578 -10.372737 2.833998 6.444707 0.000000 0.000000 0.000000 1.691115 0.412478 0.222907 -2.161017 -3.546669 0.717058 -17.201316 -12.164474 -7.497861 32.094388 22.904969 -3.668546 0.000000 0.000000 0.000000 0.000000 0.000000 0.000000 -37.487134 33.332995 34.936472 -52.683695 37.797284 28.597910 -5.282203 19.801468 -51.061789 -7.979552 -15.085203 -17.234835 0.000000 0.000000 0.000000 0.000000 0.000000 0.000000 -10.814219 -4.766746 -40.249005 7.714510 22.217979 3.722971 -15.353572 -43.621648 -33.074795 0.000000 0.000000 0.000000 -4.679787 -4.183648 -37.746530 8.387370 -4.156104 -2.883637 0.965813 -2.203433 3.952187 0.000000 0.000000 0.000000
-25.025574 82.018055 333.824488 -3.926770 0.770025 40.014925 -0.955124 -1.436357 -40.074575 -0.525220 -1.572288 -0.148461 -9.401692 3.600373 6.521789 0.000000 0.000000 0.000000 1.823522 0.439647 0.223211 -2.161850 -3.546403 0.716810 -18.433585 -10.599297 -7.047050 32.769083 20.439867 -3.132160 0.000000 0.000000 0.000000 0.000000 0.000000 0.000000 -34.010785 31.544362 31.455535 -49.112442 35.322052 25.525155 -4.931956 20.002120 -41.640467 -5.781328 -14.537252 -15.042169 0.000000 0.000000 0.000000 0.000000 0.000000 0.000000 -9.526205 -4.617329 -41.373986 6.877937 21.581161 3.781648 -15.361446 -43.621770 -33.095190 0.000000 0.000000 0.000000 -3.740628 -4.073119 -39.110603 7.973211 -4.643680 -2.670954 0.086397 -0.953224 5.412097 0.000000 0.000000 0.000000
-25.559433 81.892397 334.299059 -4.526606 0.405218 41.394087 -0.657024 -1.462103 -41.463111 -0.451707 -1.469669 -0.152396 -8.388816 4.420473 6.631549 0.000000 0.000000 0.000000 2.070846 0.519308 0.223928 -2.162926 -3.545998 0.716504 -19.847813 -8.806726 -6.485884 31.723200 17.079372 -1.815142 0.000000 0.000000 0.000000 0.000000 0.000000 0.000000 -30.895334 29.896392 28.528226 -44.977326 33.213082 22.719475 -8.488713 25.031966 -35.458193 0.455305 -17.771391 -13.863357 0.000000 0.000000 0.000000 0.000000 0.000000 0.000000 -7.765929 -4.939707 -42.676851 5.694543 21.106298 3.861637 -14.776508 -42.970472 -32.400499 0.000000 0.000000 0.000000 -1.946329 -4.131503 -40.718312 7.114603 -5.416990 -2.266845 -1.566967 1.350301 8.117479 0.000000 0.000000 0.000000
